# xmcd
#
# Track frame offsets:
#	150
#	47760
#	86438
#	120757
#	161449
#	190519
#	215253
#	262406
#
# Disc length: 4037 seconds
#
# Revision: 0
# Processed by: cddbd v1.5.2PL0 Copyright (c) Steve Scherf et al.
# Submitted via: audiograbber 1.83.01
#
DISCID=600fc308
DTITLE=Grateful Dead - 94-12-09 Oakland Coliseum Arena, Oakland CA
DYEAR=1900
DGENRE=
TTITLE0=Feel Like A Stranger
TTITLE1=Stagger Lee
TTITLE2=The Same Thing
TTITLE3=Loose Lucy
TTITLE4=El Paso
TTITLE5=Broken Arrow
TTITLE6=Ramble On Rose
TTITLE7=The Music Never Stopped
EXTD=
EXTT0=
EXTT1=
EXTT2=
EXTT3=
EXTT4=
EXTT5=
EXTT6=
EXTT7=
PLAYORDER=
